<svg xmlns="http://www.w3.org/2000/svg" xmlns:xlink="http://www.w3.org/1999/xlink" width="500" zoomAndPan="magnify" viewBox="0 0 375 374.999991" height="500" preserveAspectRatio="xMidYMid meet" version="1.0"><defs><clipPath id="dea05bf4b5"><path d="M 10.1875 10.1875 L 364.9375 10.1875 L 364.9375 364.9375 L 10.1875 364.9375 Z M 10.1875 10.1875 " clip-rule="nonzero"/></clipPath></defs><path fill="#524956" d="M 187.5625 13.003906 C 283.972656 13.003906 362.121094 91.152344 362.121094 187.5625 C 362.121094 283.972656 283.972656 362.121094 187.5625 362.121094 C 91.152344 362.121094 13.003906 283.972656 13.003906 187.5625 C 13.003906 91.152344 91.152344 13.003906 187.5625 13.003906 Z M 187.5625 13.003906 " fill-opacity="1" fill-rule="nonzero"/><path fill="#655f68" d="M 95.714844 260.546875 C 98.339844 257.828125 100.375 254.851562 109.339844 256.296875 C 112.753906 256.84375 116.042969 257.710938 119.0625 258.398438 C 129.550781 260.808594 136.734375 261.125 134.210938 238.769531 C 142.886719 247.8125 153.855469 254.65625 166.164062 258.363281 L 166.144531 258.429688 C 165.265625 258.597656 164.375 258.792969 163.488281 259.027344 C 154.820312 261.320312 147.960938 266.410156 144.554688 272.328125 C 137.476562 268.199219 129.664062 267.21875 123.019531 270.394531 C 110.480469 276.398438 106.863281 294.929688 114.9375 311.800781 C 119.703125 321.761719 127.480469 328.90625 135.632812 331.863281 L 135.425781 332.425781 C 85.28125 314.378906 47.21875 271.042969 36.609375 217.800781 C 39.25 219.722656 42.894531 217.300781 47.289062 215.632812 C 50.003906 214.605469 52.996094 213.867188 56.214844 214.605469 C 58.136719 215.046875 59.769531 215.675781 61.203125 216.351562 C 61.027344 217.828125 60.957031 219.066406 61.007812 220.039062 C 61.316406 226.515625 65.808594 226.414062 71.507812 224.894531 C 71.507812 224.894531 74.554688 264.375 86.726562 264.285156 C 91.746094 264.242188 93.878906 262.460938 95.714844 260.546875 Z M 95.714844 260.546875 " fill-opacity="1" fill-rule="nonzero"/><path fill="#655f68" d="M 143.585938 124.875 L 148.316406 124.875 C 138.558594 130.992188 130.34375 139.320312 124.355469 149.160156 C 114.351562 150.328125 111.015625 143.824219 106.210938 139.804688 C 103.902344 137.875 101.246094 136.519531 97.355469 136.863281 C 94.984375 137.074219 92.414062 139.03125 89.773438 142.226562 C 89.789062 141.269531 89.773438 140.5 89.722656 139.945312 C 88.9375 130.976562 81.277344 133.660156 74.089844 135.109375 C 71.3125 135.671875 68.601562 136.046875 66.382812 135.496094 C 63.785156 134.851562 60.289062 129.902344 55.8125 127.917969 C 52.511719 126.429688 48.675781 126.570312 44.269531 131.246094 C 55.144531 103.597656 73.78125 79.863281 97.507812 62.71875 L 97.515625 62.71875 C 97.558594 63.457031 97.699219 64.203125 97.933594 64.933594 L 103.710938 83.226562 L 88.824219 89.210938 C 83.980469 91.160156 81.636719 96.65625 83.578125 101.5 L 86.070312 107.6875 C 88.015625 112.523438 93.519531 114.875 98.355469 112.925781 L 115.121094 106.1875 C 117.078125 108.628906 120.210938 110.050781 123.558594 109.671875 L 134.140625 108.46875 L 134.140625 115.429688 C 134.140625 120.644531 138.363281 124.875 143.585938 124.875 Z M 143.585938 124.875 " fill-opacity="1" fill-rule="nonzero"/><path fill="#655f68" d="M 341.308594 180.191406 L 339.65625 180.269531 C 339.085938 167.375 329.742188 156.105469 316.519531 153.601562 C 309.9375 152.355469 303.460938 153.488281 297.964844 156.386719 C 296.15625 151.03125 292.777344 146.300781 288.273438 142.867188 C 300.785156 141.917969 311.613281 132.695312 314.054688 119.78125 C 316.96875 104.34375 306.824219 89.464844 291.390625 86.542969 C 282.992188 84.960938 274.757812 87.238281 268.527344 92.144531 L 268.519531 92.140625 L 270.941406 79.625 C 271.933594 74.5 268.585938 69.542969 263.460938 68.550781 L 225.296875 61.167969 L 234.242188 57.570312 C 239.078125 55.621094 241.429688 50.125 239.480469 45.28125 L 238.234375 42.179688 C 296.140625 62.359375 338.296875 116.15625 341.308594 180.191406 Z M 341.308594 180.191406 " fill-opacity="1" fill-rule="nonzero"/><path fill="#655f68" d="M 268.832031 137.101562 L 268.832031 137.109375 C 261.222656 137.679688 254.246094 141.3125 249.390625 146.976562 L 249.382812 146.976562 C 243.546875 138.085938 235.832031 130.535156 226.808594 124.875 L 235.671875 124.875 C 240.894531 124.875 245.117188 120.644531 245.117188 115.429688 L 245.117188 100.710938 C 245.117188 99.65625 244.941406 98.644531 244.625 97.691406 L 257.34375 100.15625 C 258.816406 100.4375 260.273438 100.367188 261.625 99.992188 L 261.628906 99.992188 C 259.984375 102.765625 258.785156 105.863281 258.152344 109.214844 C 256.089844 120.132812 260.566406 130.78125 268.832031 137.101562 Z M 268.832031 137.101562 " fill-opacity="1" fill-rule="nonzero"/><path fill="#655f68" d="M 341.308594 180.191406 C 341.429688 182.636719 341.484375 185.09375 341.484375 187.5625 C 341.484375 272.570312 272.570312 341.484375 187.5625 341.484375 C 169.261719 341.484375 151.707031 338.289062 135.425781 332.425781 L 135.632812 331.863281 C 141.289062 333.910156 147.117188 333.9375 152.257812 331.484375 C 157.316406 329.054688 160.929688 324.585938 162.898438 319.003906 C 174.40625 330.230469 190.039062 333.3125 199.773438 325.589844 C 204.660156 321.710938 207.234375 315.777344 207.539062 309.085938 L 207.546875 309.078125 C 209.671875 311.335938 212.191406 313.40625 215.042969 315.195312 C 228.6875 323.738281 244.90625 322.445312 251.253906 312.296875 C 255.585938 305.390625 254.21875 296.167969 248.601562 288.285156 C 257.371094 285.148438 263.566406 278.671875 264.15625 270.789062 C 265.050781 258.851562 252.753906 248.199219 236.691406 246.996094 C 234.980469 246.871094 233.292969 246.847656 231.652344 246.941406 L 231.652344 246.933594 C 237.507812 242.582031 242.695312 237.382812 247.03125 231.511719 L 247.039062 231.519531 C 249.699219 237.859375 254.65625 243.253906 261.398438 246.347656 C 275.671875 252.902344 292.558594 246.636719 299.113281 232.355469 C 303.003906 223.867188 302.371094 214.464844 298.21875 206.847656 C 300.597656 208.074219 303.1875 208.972656 305.945312 209.503906 C 321.382812 212.414062 336.261719 202.273438 339.183594 186.835938 C 339.597656 184.628906 339.753906 182.425781 339.65625 180.269531 Z M 341.308594 180.191406 " fill-opacity="1" fill-rule="nonzero"/><path fill="#c57742" d="M 115.121094 106.1875 L 98.355469 112.925781 C 93.519531 114.875 88.015625 112.523438 86.070312 107.6875 L 83.578125 101.5 C 81.636719 96.65625 83.980469 91.160156 88.824219 89.210938 L 103.710938 83.226562 L 104.070312 84.375 C 105.214844 88.015625 108.371094 90.46875 111.925781 90.90625 L 113.105469 101.351562 C 113.316406 103.191406 114.042969 104.84375 115.121094 106.1875 Z M 115.121094 106.1875 " fill-opacity="1" fill-rule="nonzero"/><path fill="#c57742" d="M 263.460938 68.550781 C 268.585938 69.542969 271.933594 74.5 270.941406 79.625 L 268.519531 92.140625 L 268.527344 92.144531 C 265.789062 94.285156 263.433594 96.9375 261.628906 99.992188 L 261.625 99.992188 C 260.273438 100.367188 258.816406 100.4375 257.34375 100.15625 L 244.625 97.691406 C 243.363281 93.953125 239.839844 91.265625 235.671875 91.265625 L 218.75 91.265625 C 218.808594 90.648438 218.800781 90.011719 218.722656 89.371094 L 217.230469 76.160156 C 216.640625 70.980469 211.957031 67.257812 206.777344 67.839844 L 164.019531 72.691406 L 166.578125 59.421875 C 167.574219 54.300781 172.527344 50.957031 177.652344 51.949219 L 208.75 57.964844 L 225.296875 61.167969 Z M 263.460938 68.550781 " fill-opacity="1" fill-rule="nonzero"/><path fill="#dd864a" d="M 239.480469 45.28125 C 241.429688 50.125 239.078125 55.621094 234.242188 57.570312 L 225.296875 61.167969 L 208.75 57.964844 C 209.683594 55.910156 209.902344 53.511719 209.164062 51.1875 L 206.058594 41.355469 L 224.707031 33.851562 C 229.546875 31.910156 235.046875 34.253906 236.996094 39.09375 L 238.234375 42.179688 Z M 239.480469 45.28125 " fill-opacity="1" fill-rule="nonzero"/><path fill="#dd864a" d="M 218.722656 89.371094 C 218.800781 90.011719 218.808594 90.648438 218.75 91.265625 L 143.585938 91.265625 C 138.363281 91.265625 134.140625 95.496094 134.140625 100.710938 L 134.140625 108.46875 L 123.558594 109.671875 C 120.210938 110.050781 117.078125 108.628906 115.121094 106.1875 C 114.042969 104.84375 113.316406 103.191406 113.105469 101.351562 L 111.925781 90.90625 L 111.609375 88.140625 C 111.023438 82.960938 114.746094 78.28125 119.925781 77.695312 L 164.019531 72.691406 L 206.777344 67.839844 C 211.957031 67.257812 216.640625 70.980469 217.230469 76.160156 Z M 218.722656 89.371094 " fill-opacity="1" fill-rule="nonzero"/><path fill="#f69552" d="M 209.164062 51.1875 C 209.902344 53.511719 209.683594 55.910156 208.75 57.964844 L 177.652344 51.949219 C 172.527344 50.957031 167.574219 54.300781 166.578125 59.421875 L 164.019531 72.691406 L 119.925781 77.695312 C 114.746094 78.28125 111.023438 82.960938 111.609375 88.140625 L 111.925781 90.90625 C 108.371094 90.46875 105.214844 88.015625 104.070312 84.375 L 103.710938 83.226562 L 97.933594 64.933594 C 97.699219 64.203125 97.558594 63.457031 97.515625 62.71875 C 97.226562 58.472656 99.851562 54.417969 104.089844 53.082031 L 191.171875 25.582031 C 196.148438 24.011719 201.457031 26.769531 203.027344 31.738281 L 206.058594 41.355469 Z M 209.164062 51.1875 " fill-opacity="1" fill-rule="nonzero"/><path fill="#f69552" d="M 245.117188 100.710938 L 245.117188 115.429688 C 245.117188 120.644531 240.894531 124.875 235.671875 124.875 L 226.808594 124.875 C 215.441406 117.738281 201.984375 113.613281 187.5625 113.613281 C 173.140625 113.613281 159.683594 117.738281 148.316406 124.875 L 143.585938 124.875 C 138.363281 124.875 134.140625 120.644531 134.140625 115.429688 L 134.140625 100.710938 C 134.140625 95.496094 138.363281 91.265625 143.585938 91.265625 L 235.671875 91.265625 C 239.839844 91.265625 243.363281 93.953125 244.625 97.691406 C 244.941406 98.644531 245.117188 99.65625 245.117188 100.710938 Z M 245.117188 100.710938 " fill-opacity="1" fill-rule="nonzero"/><path fill="#9bc46c" d="M 288.273438 142.867188 C 292.777344 146.300781 296.15625 151.03125 297.964844 156.386719 C 290.566406 160.292969 284.957031 167.410156 283.28125 176.265625 C 282.007812 183 283.226562 189.632812 286.28125 195.207031 C 285.898438 195.007812 285.519531 194.828125 285.125 194.644531 C 277.207031 191.011719 268.484375 191.320312 261.164062 194.75 C 261.390625 192.382812 261.511719 189.992188 261.511719 187.5625 C 261.511719 172.570312 257.054688 158.625 249.382812 146.976562 L 249.390625 146.976562 C 254.246094 141.3125 261.222656 137.679688 268.832031 137.109375 C 271.265625 136.917969 273.765625 137.046875 276.285156 137.523438 C 280.796875 138.382812 284.859375 140.25 288.273438 142.867188 Z M 288.273438 142.867188 " fill-opacity="1" fill-rule="nonzero"/><path fill="#a7d676" d="M 339.65625 180.269531 C 339.753906 182.425781 339.597656 184.628906 339.183594 186.835938 C 336.261719 202.273438 321.382812 212.414062 305.945312 209.503906 C 303.1875 208.972656 300.597656 208.074219 298.21875 206.847656 C 295.578125 202.003906 291.507812 197.894531 286.28125 195.207031 C 283.226562 189.632812 282.007812 183 283.28125 176.265625 C 284.957031 167.410156 290.566406 160.292969 297.964844 156.386719 C 303.460938 153.488281 309.9375 152.355469 316.519531 153.601562 C 329.742188 156.105469 339.085938 167.375 339.65625 180.269531 Z M 339.65625 180.269531 " fill-opacity="1" fill-rule="nonzero"/><path fill="#d0e6a6" d="M 291.390625 86.542969 C 306.824219 89.464844 316.96875 104.34375 314.054688 119.78125 C 311.613281 132.695312 300.785156 141.917969 288.273438 142.867188 C 284.859375 140.25 280.796875 138.382812 276.285156 137.523438 C 273.765625 137.046875 271.265625 136.917969 268.832031 137.109375 L 268.832031 137.101562 C 260.566406 130.78125 256.089844 120.132812 258.152344 109.214844 C 258.785156 105.863281 259.984375 102.765625 261.628906 99.992188 C 263.433594 96.9375 265.789062 94.285156 268.527344 92.144531 C 274.757812 87.238281 282.992188 84.960938 291.390625 86.542969 Z M 291.390625 86.542969 " fill-opacity="1" fill-rule="nonzero"/><path fill="#d0e6a6" d="M 298.21875 206.847656 C 302.371094 214.464844 303.003906 223.867188 299.113281 232.355469 C 292.558594 246.636719 275.671875 252.902344 261.398438 246.347656 C 254.65625 243.253906 249.699219 237.859375 247.039062 231.519531 L 247.03125 231.511719 C 254.796875 221.039062 259.84375 208.445312 261.164062 194.75 C 268.484375 191.320312 277.207031 191.011719 285.125 194.644531 C 285.519531 194.828125 285.898438 195.007812 286.28125 195.207031 C 291.507812 197.894531 295.578125 202.003906 298.21875 206.847656 Z M 298.21875 206.847656 " fill-opacity="1" fill-rule="nonzero"/><path fill="#d14b62" d="M 236.691406 246.996094 C 252.753906 248.199219 265.050781 258.851562 264.15625 270.789062 C 263.566406 278.671875 257.371094 285.148438 248.601562 288.285156 C 245.96875 284.582031 242.402344 281.183594 238.035156 278.453125 C 237.226562 277.9375 236.398438 277.46875 235.566406 277.03125 C 237.402344 273.484375 238.007812 269.667969 237.042969 266.007812 C 235.296875 259.433594 228.90625 254.957031 220.75 253.664062 C 224.585938 251.734375 228.238281 249.480469 231.652344 246.933594 L 231.652344 246.941406 C 233.292969 246.847656 234.980469 246.871094 236.691406 246.996094 Z M 236.691406 246.996094 " fill-opacity="1" fill-rule="nonzero"/><path fill="#d6eae8" d="M 261.511719 187.5625 C 261.511719 189.992188 261.390625 192.382812 261.164062 194.75 C 259.84375 208.445312 254.796875 221.039062 247.03125 231.511719 C 242.695312 237.382812 237.507812 242.582031 231.652344 246.933594 C 228.238281 249.480469 224.585938 251.734375 220.75 253.664062 C 210.769531 258.679688 199.5 261.511719 187.5625 261.511719 C 187.371094 261.511719 187.183594 261.511719 187 261.503906 C 179.757812 261.453125 172.765625 260.363281 166.164062 258.363281 C 153.855469 254.65625 142.886719 247.8125 134.210938 238.769531 C 128.191406 232.496094 123.265625 225.171875 119.75 217.089844 C 115.804688 208.046875 113.613281 198.0625 113.613281 187.5625 C 113.613281 173.5 117.542969 160.351562 124.355469 149.160156 C 130.34375 139.320312 138.558594 130.992188 148.316406 124.875 C 159.683594 117.738281 173.140625 113.613281 187.5625 113.613281 C 201.984375 113.613281 215.441406 117.738281 226.808594 124.875 C 235.832031 130.535156 243.546875 138.085938 249.382812 146.976562 C 257.054688 158.625 261.511719 172.570312 261.511719 187.5625 Z M 261.511719 187.5625 " fill-opacity="1" fill-rule="nonzero"/><path fill="#e15c63" d="M 248.601562 288.285156 C 254.21875 296.167969 255.585938 305.390625 251.253906 312.296875 C 244.90625 322.445312 228.6875 323.738281 215.042969 315.195312 C 212.191406 313.40625 209.671875 311.335938 207.546875 309.078125 C 202.476562 303.734375 199.550781 297.371094 199.289062 291.390625 C 204.308594 292.683594 210.207031 292.691406 216.203125 291.101562 C 225.246094 288.707031 232.3125 283.273438 235.566406 277.03125 C 236.398438 277.46875 237.226562 277.9375 238.035156 278.453125 C 242.402344 281.183594 245.96875 284.582031 248.601562 288.285156 Z M 248.601562 288.285156 " fill-opacity="1" fill-rule="nonzero"/><path fill="#c43b58" d="M 235.566406 277.03125 C 232.3125 283.273438 225.246094 288.707031 216.203125 291.101562 C 210.207031 292.691406 204.308594 292.683594 199.289062 291.390625 C 195.320312 290.363281 191.898438 288.523438 189.421875 286.035156 L 189.414062 286.027344 C 193.539062 281.367188 195.402344 275.800781 194.011719 270.535156 C 193.015625 266.769531 190.496094 263.691406 187 261.511719 L 187 261.503906 C 187.183594 261.511719 187.371094 261.511719 187.5625 261.511719 C 199.5 261.511719 210.769531 258.679688 220.75 253.664062 C 228.90625 254.957031 235.296875 259.433594 237.042969 266.007812 C 238.007812 269.667969 237.402344 273.484375 235.566406 277.03125 Z M 235.566406 277.03125 " fill-opacity="1" fill-rule="nonzero"/><path fill="#b8d3cf" d="M 187.5625 127.917969 C 220.503906 127.917969 247.207031 154.621094 247.207031 187.5625 C 247.207031 220.503906 220.503906 247.207031 187.5625 247.207031 C 154.621094 247.207031 127.917969 220.503906 127.917969 187.5625 C 127.917969 154.621094 154.621094 127.917969 187.5625 127.917969 Z M 187.5625 127.917969 " fill-opacity="1" fill-rule="nonzero"/><path fill="#e7f2f1" d="M 222.03125 162.179688 C 231.160156 171.507812 232.3125 185.675781 222.847656 195.488281 C 213.378906 205.292969 218.5625 211.015625 207.796875 220.074219 C 197.03125 229.132812 191.171875 219.941406 174.21875 222.1875 C 157.253906 224.4375 157.386719 207.476562 154.664062 198.894531 C 151.941406 190.308594 146.625 192.355469 145.738281 183.636719 C 144.859375 174.914062 156.027344 158.429688 163.792969 154.074219 C 171.554688 149.714844 175.738281 158.5 185.296875 152.4375 C 200.765625 142.621094 212.902344 152.847656 222.03125 162.179688 Z M 222.03125 162.179688 " fill-opacity="1" fill-rule="nonzero"/><path fill="#d14b62" d="M 207.546875 309.078125 L 207.539062 309.085938 C 207.234375 315.777344 204.660156 321.710938 199.773438 325.589844 C 190.039062 333.3125 174.40625 330.230469 162.898438 319.003906 C 165.160156 312.597656 165.265625 304.742188 162.933594 296.839844 C 166.214844 296.929688 169.675781 296.550781 173.175781 295.621094 C 179.96875 293.824219 185.640625 290.3125 189.414062 286.027344 L 189.421875 286.035156 C 191.898438 288.527344 195.320312 290.363281 199.289062 291.390625 C 199.550781 297.371094 202.476562 303.734375 207.546875 309.078125 Z M 207.546875 309.078125 " fill-opacity="1" fill-rule="nonzero"/><path fill="#e15c63" d="M 194.011719 270.535156 C 195.402344 275.800781 193.539062 281.367188 189.414062 286.027344 C 185.640625 290.3125 179.96875 293.824219 173.175781 295.621094 C 169.675781 296.550781 166.214844 296.929688 162.933594 296.839844 C 152.917969 296.542969 144.667969 291.734375 142.648438 284.121094 C 141.605469 280.191406 142.382812 276.09375 144.554688 272.328125 C 147.960938 266.410156 154.820312 261.320312 163.488281 259.027344 C 164.375 258.792969 165.265625 258.597656 166.144531 258.429688 L 166.164062 258.363281 C 172.765625 260.363281 179.757812 261.453125 187 261.503906 L 187 261.511719 C 190.496094 263.691406 193.015625 266.769531 194.011719 270.535156 Z M 194.011719 270.535156 " fill-opacity="1" fill-rule="nonzero"/><path fill="#c43b58" d="M 162.933594 296.839844 C 165.265625 304.742188 165.160156 312.597656 162.898438 319.003906 C 160.929688 324.585938 157.316406 329.054688 152.257812 331.484375 C 147.117188 333.9375 141.289062 333.910156 135.632812 331.863281 C 127.480469 328.90625 119.703125 321.761719 114.9375 311.800781 C 106.863281 294.929688 110.480469 276.398438 123.019531 270.394531 C 129.664062 267.21875 137.476562 268.199219 144.554688 272.328125 C 142.382812 276.09375 141.605469 280.191406 142.648438 284.117188 C 144.667969 291.734375 152.917969 296.542969 162.933594 296.839844 Z M 162.933594 296.839844 " fill-opacity="1" fill-rule="nonzero"/><path fill="#4aaf8f" d="M 134.210938 238.769531 C 136.734375 261.125 129.550781 260.808594 119.0625 258.398438 C 119.0625 258.398438 118.949219 237.8125 115.164062 227.34375 C 116.867188 225.269531 118.40625 221.988281 119.746094 217.089844 L 119.75 217.089844 C 123.265625 225.171875 128.191406 232.496094 134.210938 238.769531 Z M 134.210938 238.769531 " fill-opacity="1" fill-rule="nonzero"/><path fill="#53b79a" d="M 106.210938 139.804688 C 111.015625 143.824219 114.351562 150.328125 124.355469 149.160156 C 117.542969 160.351562 113.613281 173.5 113.613281 187.5625 C 113.613281 198.0625 115.804688 208.046875 119.75 217.089844 L 119.746094 217.089844 C 118.40625 221.988281 116.867188 225.269531 115.164062 227.34375 C 108.285156 235.769531 98.929688 224.4375 90.949219 221.59375 C 89.246094 220.988281 87.269531 220.945312 85.148438 221.226562 C 81.980469 221.636719 78.503906 222.769531 75.203125 223.796875 C 75.554688 223.058594 98.234375 175.949219 106.203125 139.8125 Z M 106.210938 139.804688 " fill-opacity="1" fill-rule="nonzero"/><path fill="#3fa07f" d="M 115.164062 227.34375 C 118.949219 237.8125 119.0625 258.398438 119.0625 258.398438 C 116.042969 257.710938 112.753906 256.84375 109.339844 256.296875 C 100.375 254.851562 98.339844 257.828125 95.714844 260.546875 C 87.203125 243.914062 85.148438 221.226562 85.148438 221.226562 C 87.269531 220.945312 89.246094 220.988281 90.949219 221.59375 C 98.929688 224.4375 108.285156 235.769531 115.164062 227.34375 Z M 115.164062 227.34375 " fill-opacity="1" fill-rule="nonzero"/><path fill="#6fceae" d="M 106.210938 139.804688 L 106.203125 139.8125 C 98.234375 175.949219 75.554688 223.058594 75.203125 223.796875 C 75.195312 223.804688 75.195312 223.804688 75.195312 223.804688 C 73.929688 224.199219 72.691406 224.570312 71.507812 224.894531 C 65.808594 226.414062 61.316406 226.515625 61.007812 220.039062 C 60.957031 219.066406 61.027344 217.828125 61.203125 216.351562 C 61.984375 209.75 64.871094 198.5 68.867188 186.511719 C 74.527344 169.558594 82.425781 151.117188 89.773438 142.226562 C 92.414062 139.03125 94.984375 137.074219 97.355469 136.863281 C 101.246094 136.519531 103.902344 137.875 106.210938 139.804688 Z M 106.210938 139.804688 " fill-opacity="1" fill-rule="nonzero"/><path fill="#4aaf8f" d="M 89.722656 139.945312 C 89.773438 140.5 89.789062 141.269531 89.773438 142.226562 C 82.425781 151.117188 74.527344 169.558594 68.867188 186.511719 C 71.824219 169.761719 74.613281 149.53125 74.089844 135.109375 C 81.277344 133.660156 88.9375 130.976562 89.722656 139.945312 Z M 89.722656 139.945312 " fill-opacity="1" fill-rule="nonzero"/><path fill="#4aaf8f" d="M 85.148438 221.226562 C 85.148438 221.226562 87.203125 243.914062 95.714844 260.546875 C 93.878906 262.460938 91.746094 264.242188 86.726562 264.285156 C 74.554688 264.375 71.507812 224.894531 71.507812 224.894531 C 72.691406 224.570312 73.929688 224.199219 75.195312 223.804688 C 75.195312 223.804688 75.195312 223.804688 75.203125 223.796875 C 78.503906 222.769531 81.980469 221.636719 85.148438 221.226562 Z M 85.148438 221.226562 " fill-opacity="1" fill-rule="nonzero"/><path fill="#53b79a" d="M 74.089844 135.109375 C 74.613281 149.53125 71.824219 169.761719 68.867188 186.511719 C 64.871094 198.5 61.984375 209.75 61.203125 216.351562 C 59.769531 215.675781 58.136719 215.046875 56.214844 214.605469 C 52.996094 213.867188 50.003906 214.605469 47.289062 215.632812 C 47.289062 215.632812 44.492188 159.070312 55.8125 127.917969 C 60.289062 129.902344 63.785156 134.847656 66.382812 135.496094 C 68.601562 136.046875 71.3125 135.671875 74.089844 135.109375 Z M 74.089844 135.109375 " fill-opacity="1" fill-rule="nonzero"/><path fill="#6fceae" d="M 36.609375 217.800781 C 35.6875 217.132812 34.894531 215.929688 34.230469 213.972656 C 30.507812 202.976562 31.324219 147.757812 42.585938 133.230469 C 43.15625 132.5 43.710938 131.835938 44.269531 131.253906 L 44.269531 131.246094 C 48.675781 126.570312 52.511719 126.429688 55.8125 127.917969 C 44.492188 159.070312 47.289062 215.632812 47.289062 215.632812 C 42.894531 217.300781 39.25 219.722656 36.609375 217.800781 Z M 36.609375 217.800781 " fill-opacity="1" fill-rule="nonzero"/><path fill="#5d5560" d="M 143.585938 124.875 L 148.316406 124.875 C 144.964844 126.972656 141.796875 129.339844 138.832031 131.941406 C 124.050781 131.261719 127.917969 120.175781 127.917969 120.175781 C 124.933594 122.742188 115.164062 120.175781 115.164062 120.175781 C 96.1875 127.867188 91.949219 113.15625 91.949219 113.15625 L 91.949219 113.148438 C 93.976562 113.804688 96.226562 113.78125 98.355469 112.925781 L 115.121094 106.1875 C 117.078125 108.628906 120.210938 110.050781 123.558594 109.671875 L 134.140625 108.46875 L 134.140625 115.429688 C 134.140625 120.644531 138.363281 124.875 143.585938 124.875 Z M 143.585938 124.875 " fill-opacity="1" fill-rule="nonzero"/><path fill="#5d5560" d="M 239.480469 45.28125 C 239.480469 45.28125 253.023438 54.242188 242.476562 64.492188 L 225.296875 61.167969 L 234.242188 57.570312 C 239.078125 55.621094 241.429688 50.125 239.480469 45.28125 Z M 239.480469 45.28125 " fill-opacity="1" fill-rule="nonzero"/><path fill="#5d5560" d="M 257.34375 100.15625 C 258.816406 100.4375 260.273438 100.367188 261.625 99.992188 L 261.628906 99.992188 C 259.984375 102.765625 258.785156 105.863281 258.152344 109.214844 C 257.300781 113.726562 257.570312 118.195312 258.757812 122.335938 C 258.757812 122.335938 257.21875 136.792969 238.101562 133.574219 C 234.636719 130.332031 230.855469 127.410156 226.808594 124.875 L 235.671875 124.875 C 240.894531 124.875 245.117188 120.644531 245.117188 115.429688 L 245.117188 100.710938 C 245.117188 99.65625 244.941406 98.644531 244.625 97.691406 Z M 257.34375 100.15625 " fill-opacity="1" fill-rule="nonzero"/><path fill="#5d5560" d="M 314.554688 113.605469 C 314.554688 113.605469 329.808594 139.507812 304.609375 153.882812 C 302.285156 154.4375 300.054688 155.289062 297.964844 156.386719 C 296.15625 151.03125 292.777344 146.300781 288.273438 142.867188 C 300.785156 141.917969 311.613281 132.695312 314.054688 119.78125 C 314.449219 117.703125 314.605469 115.632812 314.535156 113.605469 Z M 314.554688 113.605469 " fill-opacity="1" fill-rule="nonzero"/><path fill="#5d5560" d="M 231.652344 246.933594 C 237.507812 242.582031 242.695312 237.382812 247.03125 231.511719 L 247.039062 231.519531 C 249.699219 237.859375 254.65625 243.253906 261.398438 246.347656 C 275.671875 252.902344 292.558594 246.636719 299.113281 232.355469 C 303.003906 223.867188 302.371094 214.464844 298.21875 206.847656 C 300.597656 208.074219 303.1875 208.972656 305.945312 209.503906 C 319.691406 212.097656 332.996094 204.34375 337.804688 191.707031 C 340.800781 224.5 312.578125 221.226562 312.578125 221.226562 C 313.5625 225.558594 314.492188 239.136719 299.035156 253.664062 C 283.871094 267.917969 259.773438 257.28125 258.863281 256.871094 L 258.855469 256.871094 C 253.902344 251.496094 245.921875 247.6875 236.691406 246.996094 C 234.980469 246.871094 233.292969 246.847656 231.652344 246.941406 Z M 231.652344 246.933594 " fill-opacity="1" fill-rule="nonzero"/><path fill="#5d5560" d="M 164.917969 339.832031 C 154.726562 338.324219 144.867188 335.824219 135.433594 332.433594 L 135.433594 332.425781 L 135.632812 331.863281 C 141.289062 333.910156 147.117188 333.9375 152.257812 331.484375 C 157.316406 329.054688 160.929688 324.585938 162.898438 319.003906 C 174.40625 330.230469 190.039062 333.3125 199.773438 325.589844 C 204.660156 321.710938 207.234375 315.777344 207.539062 309.085938 L 207.546875 309.078125 C 209.671875 311.335938 212.191406 313.40625 215.042969 315.195312 C 228.6875 323.738281 244.90625 322.445312 251.253906 312.296875 C 255.585938 305.390625 254.21875 296.167969 248.601562 288.285156 C 257.371094 285.148438 263.566406 278.671875 264.15625 270.789062 C 276.382812 285.132812 261.898438 296.851562 261.898438 296.851562 C 264.910156 303.074219 267.488281 310.203125 261.769531 322.4375 C 251.628906 328.039062 240.789062 332.515625 229.40625 335.71875 C 220.636719 333.503906 213.457031 329.855469 213.457031 329.855469 C 211.710938 335.015625 208.820312 338.378906 205.320312 340.472656 C 199.492188 341.140625 193.566406 341.484375 187.5625 341.484375 C 184.816406 341.484375 182.09375 341.414062 179.382812 341.265625 C 172.992188 339.4375 168.324219 337.105469 168.324219 337.105469 C 167.191406 338.183594 166.050781 339.085938 164.917969 339.832031 Z M 164.917969 339.832031 " fill-opacity="1" fill-rule="nonzero"/><path fill="#5d5560" d="M 134.210938 238.769531 C 142.886719 247.8125 153.855469 254.65625 166.164062 258.363281 L 166.144531 258.429688 C 165.265625 258.597656 164.375 258.792969 163.488281 259.027344 C 159.148438 260.171875 155.261719 262.023438 152.03125 264.328125 C 136.898438 264.445312 133.941406 253.664062 133.941406 253.664062 C 134.84375 250.472656 134.996094 245.714844 134.210938 238.769531 Z M 134.210938 238.769531 " fill-opacity="1" fill-rule="nonzero"/><path fill="#5d5560" d="M 95.714844 260.546875 C 98.339844 257.828125 100.375 254.851562 109.339844 256.296875 C 112.753906 256.84375 116.042969 257.710938 119.0625 258.398438 C 121.171875 258.886719 123.152344 259.28125 124.9375 259.425781 C 125.363281 269.640625 117.746094 269.515625 106.210938 268.515625 C 94.671875 267.515625 101.316406 273.863281 82.898438 276.96875 C 64.476562 280.070312 64.097656 238.289062 64.097656 238.289062 C 61.195312 238 58.78125 236.644531 55.8125 231.863281 C 52.84375 227.085938 46.984375 228.800781 46.984375 228.800781 C 43.621094 229.449219 41.082031 229.289062 39.179688 228.597656 C 38.195312 225.050781 37.335938 221.445312 36.609375 217.800781 C 39.25 219.722656 42.894531 217.300781 47.289062 215.632812 C 50.003906 214.605469 52.996094 213.867188 56.214844 214.605469 C 58.136719 215.046875 59.769531 215.675781 61.203125 216.351562 C 61.027344 217.828125 60.957031 219.066406 61.007812 220.039062 C 61.316406 226.515625 65.808594 226.414062 71.507812 224.894531 C 71.507812 224.894531 74.554688 264.375 86.726562 264.285156 C 91.746094 264.242188 93.878906 262.460938 95.714844 260.546875 Z M 95.714844 260.546875 " fill-opacity="1" fill-rule="nonzero"/><g clip-path="url(#dea05bf4b5)"><path fill="#3a322b" d="M 224.042969 160.210938 C 217.050781 153.0625 202.503906 138.1875 183.785156 150.058594 C 179.726562 152.636719 177.175781 151.910156 173.945312 150.988281 C 170.867188 150.113281 167.035156 149.019531 162.414062 151.617188 C 154.316406 156.164062 141.882812 173.496094 142.941406 183.917969 C 143.519531 189.628906 145.878906 191.796875 147.960938 193.710938 C 149.554688 195.179688 150.933594 196.449219 151.980469 199.746094 C 152.433594 201.171875 152.820312 202.933594 153.226562 204.800781 C 155.03125 213.054688 157.691406 225.214844 171.175781 225.214844 C 172.242188 225.214844 173.378906 225.140625 174.582031 224.980469 C 181.167969 224.105469 185.964844 225.082031 190.199219 225.945312 C 192.726562 226.457031 195.195312 226.960938 197.730469 226.960938 C 201.425781 226.960938 205.257812 225.890625 209.609375 222.230469 C 215.898438 216.933594 217.316406 212.550781 218.6875 208.308594 C 219.800781 204.863281 220.851562 201.609375 224.875 197.441406 C 234.953125 187.003906 234.59375 170.996094 224.042969 160.210938 Z M 220.824219 193.53125 C 215.894531 198.636719 214.53125 202.855469 213.328125 206.578125 C 212.101562 210.382812 211.039062 213.667969 205.980469 217.921875 C 200.734375 222.339844 197.191406 221.617188 191.324219 220.425781 C 188.117188 219.773438 184.347656 219.007812 179.664062 219.007812 C 177.867188 219.007812 175.933594 219.121094 173.84375 219.398438 C 163.300781 220.796875 161.015625 214.050781 158.726562 203.597656 C 158.292969 201.601562 157.878906 199.714844 157.347656 198.039062 C 155.847656 193.316406 153.589844 191.238281 151.773438 189.570312 C 149.984375 187.925781 148.90625 186.933594 148.542969 183.351562 C 147.800781 176.046875 158.214844 160.433594 165.171875 156.527344 C 167.75 155.078125 169.601562 155.605469 172.40625 156.40625 C 176.0625 157.445312 180.609375 158.742188 186.800781 154.816406 C 199.140625 146.988281 209.003906 152.886719 220.019531 164.148438 C 228.527344 172.84375 228.863281 185.203125 220.824219 193.53125 Z M 180.429688 172.566406 L 169.621094 179.921875 C 169.136719 180.253906 168.585938 180.410156 168.039062 180.410156 C 167.140625 180.410156 166.253906 179.980469 165.710938 179.179688 C 164.835938 177.894531 165.167969 176.144531 166.453125 175.265625 L 177.261719 167.910156 C 178.546875 167.035156 180.296875 167.367188 181.171875 168.652344 C 182.046875 169.941406 181.714844 171.691406 180.429688 172.566406 Z M 213.851562 186.078125 C 213.351562 187.039062 212.371094 187.585938 211.359375 187.585938 C 210.917969 187.585938 210.46875 187.484375 210.050781 187.261719 L 198.972656 181.449219 C 197.59375 180.730469 197.066406 179.027344 197.785156 177.648438 C 198.507812 176.273438 200.210938 175.742188 201.585938 176.464844 L 212.667969 182.277344 C 214.042969 183 214.574219 184.699219 213.851562 186.078125 Z M 191.230469 205.039062 C 192.125 206.308594 191.820312 208.066406 190.546875 208.960938 C 190.054688 209.308594 189.488281 209.472656 188.929688 209.472656 C 188.042969 209.472656 187.171875 209.058594 186.625 208.277344 L 179.085938 197.5625 C 178.191406 196.289062 178.496094 194.53125 179.769531 193.636719 C 181.042969 192.742188 182.796875 193.050781 183.691406 194.320312 Z M 187.5625 125.101562 C 153.121094 125.101562 125.101562 153.121094 125.101562 187.5625 C 125.101562 222.003906 153.121094 250.023438 187.5625 250.023438 C 222.003906 250.023438 250.023438 222.003906 250.023438 187.5625 C 250.023438 153.121094 222.003906 125.101562 187.5625 125.101562 Z M 187.5625 244.394531 C 156.226562 244.394531 130.730469 218.898438 130.730469 187.5625 C 130.730469 156.226562 156.226562 130.730469 187.5625 130.730469 C 218.898438 130.730469 244.394531 156.226562 244.394531 187.5625 C 244.394531 218.898438 218.898438 244.394531 187.5625 244.394531 Z M 274.144531 211.019531 L 276.957031 204.898438 C 277.601562 203.484375 279.277344 202.863281 280.6875 203.511719 C 282.101562 204.160156 282.722656 205.832031 282.074219 207.246094 L 279.261719 213.367188 C 278.789062 214.402344 277.769531 215.011719 276.703125 215.011719 C 276.308594 215.011719 275.910156 214.929688 275.53125 214.753906 C 274.117188 214.105469 273.496094 212.433594 274.144531 211.019531 Z M 264.449219 233.75 L 267.257812 227.625 C 267.90625 226.210938 269.578125 225.589844 270.992188 226.242188 C 272.402344 226.890625 273.023438 228.5625 272.375 229.972656 L 269.566406 236.097656 C 269.089844 237.128906 268.070312 237.738281 267.003906 237.738281 C 266.613281 237.738281 266.210938 237.65625 265.832031 237.480469 C 264.417969 236.832031 263.800781 235.160156 264.449219 233.75 Z M 282.738281 221.382812 L 288.859375 224.191406 C 290.273438 224.839844 290.894531 226.511719 290.246094 227.925781 C 289.769531 228.957031 288.75 229.566406 287.683594 229.566406 C 287.292969 229.566406 286.890625 229.484375 286.511719 229.308594 L 280.386719 226.5 C 278.976562 225.851562 278.355469 224.179688 279.003906 222.765625 C 279.652344 221.351562 281.324219 220.734375 282.738281 221.382812 Z M 309.808594 172.140625 L 311.058594 165.519531 C 311.347656 163.992188 312.820312 162.984375 314.347656 163.277344 C 315.875 163.566406 316.882812 165.039062 316.59375 166.566406 L 315.339844 173.183594 C 315.085938 174.535156 313.902344 175.476562 312.578125 175.476562 C 312.402344 175.476562 312.226562 175.460938 312.050781 175.429688 C 310.523438 175.140625 309.519531 173.667969 309.808594 172.140625 Z M 305.109375 180.730469 C 304.855469 182.082031 303.675781 183.023438 302.347656 183.023438 C 302.171875 183.023438 301.996094 183.007812 301.820312 182.972656 L 295.203125 181.722656 C 293.675781 181.433594 292.667969 179.960938 292.957031 178.433594 C 293.246094 176.90625 294.71875 175.898438 296.246094 176.191406 L 302.867188 177.441406 C 304.394531 177.730469 305.398438 179.203125 305.109375 180.730469 Z M 305.871094 196.535156 L 307.125 189.914062 C 307.414062 188.386719 308.886719 187.382812 310.414062 187.671875 C 311.941406 187.960938 312.945312 189.433594 312.65625 190.960938 L 311.40625 197.582031 C 311.148438 198.929688 309.96875 199.871094 308.640625 199.871094 C 308.46875 199.871094 308.292969 199.859375 308.117188 199.824219 C 306.589844 199.535156 305.585938 198.0625 305.871094 196.535156 Z M 317.355469 182.367188 C 317.640625 180.839844 319.113281 179.832031 320.644531 180.125 L 327.261719 181.375 C 328.789062 181.664062 329.796875 183.136719 329.507812 184.664062 C 329.25 186.015625 328.070312 186.957031 326.742188 186.957031 C 326.570312 186.957031 326.394531 186.941406 326.214844 186.910156 L 319.597656 185.65625 C 318.070312 185.367188 317.066406 183.898438 317.355469 182.367188 Z M 291.464844 99.511719 L 290.210938 106.128906 C 289.957031 107.480469 288.773438 108.421875 287.449219 108.421875 C 287.273438 108.421875 287.097656 108.40625 286.921875 108.375 C 285.394531 108.085938 284.390625 106.613281 284.679688 105.085938 L 285.929688 98.464844 C 286.21875 96.9375 287.691406 95.929688 289.21875 96.222656 C 290.75 96.511719 291.753906 97.980469 291.464844 99.511719 Z M 276.363281 150.488281 L 275.113281 157.105469 C 274.855469 158.457031 273.675781 159.398438 272.347656 159.398438 C 272.175781 159.398438 272 159.382812 271.820312 159.351562 C 270.292969 159.0625 269.289062 157.589844 269.578125 156.0625 L 270.832031 149.441406 C 271.117188 147.914062 272.589844 146.90625 274.121094 147.199219 C 275.648438 147.488281 276.652344 148.960938 276.363281 150.488281 Z M 279.984375 113.675781 C 279.726562 115.027344 278.546875 115.96875 277.21875 115.96875 C 277.046875 115.96875 276.871094 115.953125 276.691406 115.917969 L 270.074219 114.667969 C 268.546875 114.378906 267.539062 112.90625 267.828125 111.378906 C 268.117188 109.851562 269.585938 108.84375 271.117188 109.136719 L 277.738281 110.386719 C 279.265625 110.675781 280.273438 112.148438 279.984375 113.675781 Z M 287.527344 123.90625 L 286.277344 130.527344 C 286.023438 131.875 284.839844 132.816406 283.515625 132.816406 C 283.339844 132.816406 283.164062 132.804688 282.988281 132.769531 C 281.460938 132.480469 280.453125 131.007812 280.742188 129.480469 L 281.996094 122.859375 C 282.285156 121.332031 283.753906 120.324219 285.285156 120.617188 C 286.8125 120.90625 287.816406 122.378906 287.527344 123.90625 Z M 304.378906 117.609375 C 304.121094 118.960938 302.941406 119.902344 301.613281 119.902344 C 301.441406 119.902344 301.265625 119.886719 301.089844 119.855469 L 294.46875 118.601562 C 292.941406 118.3125 291.9375 116.84375 292.226562 115.3125 C 292.511719 113.785156 293.984375 112.777344 295.515625 113.070312 L 302.132812 114.320312 C 303.660156 114.609375 304.667969 116.082031 304.378906 117.609375 Z M 187.5625 10.1875 C 140.183594 10.1875 95.640625 28.636719 62.140625 62.140625 C 28.636719 95.640625 10.1875 140.183594 10.1875 187.5625 C 10.1875 234.941406 28.636719 279.484375 62.140625 312.984375 C 95.640625 346.488281 140.183594 364.9375 187.5625 364.9375 C 234.941406 364.9375 279.484375 346.488281 312.984375 312.984375 C 346.488281 279.484375 364.9375 234.941406 364.9375 187.5625 C 364.9375 140.183594 346.488281 95.640625 312.984375 62.140625 C 279.484375 28.636719 234.941406 10.1875 187.5625 10.1875 Z M 187.5625 359.304688 C 92.863281 359.304688 15.816406 282.261719 15.816406 187.5625 C 15.816406 92.863281 92.863281 15.816406 187.5625 15.816406 C 282.261719 15.816406 359.304688 92.863281 359.304688 187.5625 C 359.304688 282.261719 282.261719 359.304688 187.5625 359.304688 Z M 240.375 39.957031 L 239.605469 38.046875 C 238.382812 35.007812 236.050781 32.625 233.039062 31.339844 C 230.027344 30.054688 226.695312 30.019531 223.65625 31.242188 L 207.828125 37.605469 L 205.710938 30.894531 C 204.722656 27.769531 202.578125 25.21875 199.675781 23.707031 C 196.765625 22.199219 193.449219 21.910156 190.324219 22.894531 L 103.246094 50.394531 C 98.292969 51.960938 95.042969 56.390625 94.714844 61.285156 C 70.957031 78.777344 52.699219 102.402344 41.847656 129.726562 C 41.351562 130.28125 40.855469 130.867188 40.363281 131.503906 C 33.25 140.683594 30.804688 162.53125 29.980469 174.738281 C 28.824219 191.871094 29.492188 208.75 31.566406 214.875 C 32.207031 216.769531 33.027344 218.230469 34.046875 219.28125 C 41.175781 253.953125 60.148438 285.519531 87.558594 308.257812 C 115.582031 331.5 151.09375 344.300781 187.5625 344.300781 C 229.429688 344.300781 268.789062 327.996094 298.390625 298.390625 C 327.996094 268.789062 344.296875 229.429688 344.296875 187.5625 C 344.296875 121.359375 302.589844 62.210938 240.375 39.957031 Z M 299.796875 86.386719 C 297.324219 85.1875 294.683594 84.304688 291.910156 83.777344 C 285.242188 82.519531 278.503906 83.429688 272.507812 86.339844 L 273.707031 80.160156 C 274.988281 73.523438 270.636719 67.078125 263.996094 65.789062 L 235.203125 60.21875 L 235.292969 60.183594 C 238.332031 58.960938 240.710938 56.628906 241.996094 53.617188 C 242.917969 51.457031 243.183594 49.140625 242.820312 46.878906 C 265.054688 55.609375 284.410156 69.292969 299.796875 86.386719 Z M 236.484375 249.804688 C 250.96875 250.890625 262.125 260.207031 261.351562 270.574219 C 260.90625 276.484375 256.4375 281.824219 249.542969 284.867188 C 246.828125 281.511719 243.4375 278.511719 239.53125 276.066406 C 239.410156 275.988281 239.285156 275.917969 239.160156 275.84375 C 240.449219 272.34375 240.679688 268.746094 239.761719 265.289062 C 238.289062 259.707031 234.054688 255.300781 228.007812 252.78125 C 229.554688 251.820312 231.0625 250.804688 232.535156 249.734375 C 233.84375 249.695312 235.164062 249.703125 236.484375 249.804688 Z M 117.480469 310.585938 C 110.089844 295.144531 113.117188 278.257812 124.234375 272.933594 C 129.105469 270.605469 135.054688 270.859375 140.863281 273.570312 C 139.34375 277.234375 138.9375 281.101562 139.929688 284.839844 C 142.109375 293.089844 150.457031 298.535156 160.730469 299.496094 C 163.890625 312.480469 159.964844 324.667969 151.039062 328.941406 C 139.921875 334.261719 124.867188 326.027344 117.480469 310.585938 Z M 166.179688 261.296875 C 172.527344 263.140625 179.210938 264.183594 186.113281 264.3125 C 188.777344 266.140625 190.570312 268.523438 191.289062 271.253906 C 193.5625 279.839844 185.113281 289.554688 172.453125 292.902344 C 159.792969 296.25 147.644531 291.988281 145.371094 283.402344 C 143.097656 274.8125 151.550781 265.101562 164.210938 261.75 C 164.863281 261.578125 165.523438 261.429688 166.179688 261.296875 Z M 221.121094 256.597656 C 228.066406 257.910156 232.976562 261.65625 234.320312 266.730469 C 235.375 270.710938 234.113281 275.121094 230.777344 279.136719 C 227.210938 283.429688 221.78125 286.710938 215.480469 288.378906 C 207.15625 290.582031 198.605469 289.445312 193.277344 285.613281 C 196.734375 280.726562 198.144531 275.140625 196.734375 269.8125 C 196.183594 267.730469 195.234375 265.800781 193.933594 264.0625 C 203.613281 263.265625 212.785156 260.664062 221.121094 256.597656 Z M 166.515625 299.566406 C 168.933594 299.402344 171.40625 299.003906 173.890625 298.34375 C 180.144531 296.691406 185.53125 293.652344 189.554688 289.867188 C 191.613281 291.429688 194.015625 292.660156 196.65625 293.539062 C 197.402344 299.339844 200.25 305.121094 204.652344 310.082031 C 204.148438 315.679688 201.820312 320.375 198.027344 323.382812 C 189.84375 329.878906 176.609375 327.621094 166.074219 318.117188 C 167.675781 312.550781 167.894531 306.148438 166.515625 299.566406 Z M 202.617188 294.875 C 204.03125 295.050781 205.484375 295.140625 206.960938 295.140625 C 210.207031 295.140625 213.570312 294.710938 216.921875 293.824219 C 224.34375 291.859375 230.800781 287.921875 235.109375 282.738281 C 235.625 282.113281 236.101562 281.480469 236.542969 280.839844 C 242.636719 284.65625 247.246094 289.96875 249.527344 295.800781 C 251.691406 301.34375 251.457031 306.671875 248.871094 310.804688 C 243.355469 319.617188 228.847656 320.519531 216.53125 312.8125 C 209.265625 308.261719 204.199219 301.628906 202.617188 294.875 Z M 187.5625 258.699219 C 148.335938 258.699219 116.425781 226.785156 116.425781 187.5625 C 116.425781 148.335938 148.335938 116.425781 187.5625 116.425781 C 226.785156 116.425781 258.699219 148.335938 258.699219 187.5625 C 258.699219 226.785156 226.785156 258.699219 187.5625 258.699219 Z M 129.699219 255.71875 C 128.207031 257.042969 125.347656 256.828125 121.835938 256.121094 C 121.695312 250.6875 121.066406 236.796875 118.292969 227.847656 C 118.972656 226.832031 119.601562 225.664062 120.195312 224.339844 C 123.304688 230.015625 127.117188 235.253906 131.503906 239.949219 C 132.613281 250.644531 131.148438 254.433594 129.699219 255.71875 Z M 58.957031 212.453125 C 58.257812 212.226562 57.554688 212.023438 56.84375 211.859375 C 54.386719 211.296875 52.09375 211.429688 49.96875 211.886719 C 49.613281 199.53125 49.132812 158.25 57.355469 132.144531 C 58.324219 132.882812 59.261719 133.714844 60.15625 134.515625 C 62.105469 136.253906 63.785156 137.753906 65.703125 138.230469 C 67.472656 138.671875 69.378906 138.652344 71.328125 138.421875 C 71.363281 149.921875 69.585938 166.1875 66.132812 185.820312 C 62.769531 195.921875 60.179688 205.535156 58.957031 212.453125 Z M 75.414062 161.738281 C 76.523438 152.230469 77.042969 144.082031 76.960938 137.378906 C 80.359375 136.640625 84.175781 135.824219 85.683594 136.933594 C 86.359375 137.429688 86.773438 138.527344 86.917969 140.195312 C 86.9375 140.40625 86.957031 140.761719 86.960938 141.3125 C 82.828125 146.542969 78.875 154 75.414062 161.738281 Z M 76.070312 174.824219 C 85.292969 151.035156 93.53125 140.023438 97.601562 139.664062 C 99.839844 139.46875 101.480469 139.949219 103.054688 140.96875 C 95.554688 173.359375 76.578125 214.296875 73.1875 221.476562 C 69.683594 222.542969 65.976562 223.496094 64.679688 222.589844 C 64.023438 222.128906 63.859375 220.714844 63.820312 219.910156 C 63.546875 214.105469 68.402344 194.605469 76.070312 174.824219 Z M 110.742188 227.332031 C 107.925781 228.417969 103.789062 225.78125 99.789062 223.230469 C 97.214844 221.589844 94.550781 219.890625 91.894531 218.945312 C 88.4375 217.714844 84.460938 218.261719 80.398438 219.320312 C 86.371094 206.277344 100.855469 173.25 107.816406 145.261719 C 110.625 148.089844 114.050781 151.207031 119.578125 151.941406 C 113.972656 162.59375 110.796875 174.714844 110.796875 187.5625 C 110.796875 198.082031 112.925781 208.113281 116.769531 217.25 C 115.101562 222.96875 113.027344 226.449219 110.742188 227.332031 Z M 76.789062 226.257812 C 78.714844 225.65625 80.746094 225.023438 82.695312 224.558594 C 83.535156 231.105469 86.070312 246.800781 92.265625 259.90625 C 91.023438 260.851562 89.484375 261.449219 86.707031 261.46875 C 86.699219 261.46875 86.691406 261.46875 86.683594 261.46875 C 80.515625 261.46875 75.949219 241.667969 74.519531 226.957031 C 75.269531 226.734375 76.027344 226.496094 76.789062 226.257812 Z M 96.582031 255.789062 C 91.367188 243.910156 89.085938 229.894531 88.296875 223.914062 C 88.914062 223.964844 89.488281 224.066406 90.003906 224.25 C 92.058594 224.984375 94.34375 226.4375 96.761719 227.980469 C 100.667969 230.46875 104.980469 233.222656 109.324219 233.222656 C 110.472656 233.222656 111.625 233.03125 112.769531 232.585938 C 113.066406 232.472656 113.355469 232.339844 113.644531 232.195312 C 115.398438 239.601562 115.972656 249.566406 116.15625 254.824219 C 114.109375 254.339844 112 253.867188 109.789062 253.511719 C 102.652344 252.363281 99.019531 253.847656 96.582031 255.789062 Z M 143.582031 122.058594 C 139.925781 122.058594 136.953125 119.082031 136.953125 115.429688 L 136.953125 100.714844 C 136.953125 97.058594 139.925781 94.085938 143.582031 94.085938 L 235.675781 94.085938 C 239.332031 94.085938 242.304688 97.058594 242.304688 100.714844 L 242.304688 115.429688 C 242.304688 119.082031 239.332031 122.058594 235.675781 122.058594 L 227.550781 122.058594 C 215.898438 114.917969 202.203125 110.796875 187.5625 110.796875 C 172.921875 110.796875 159.226562 114.917969 147.574219 122.058594 Z M 131.320312 100.714844 L 131.320312 105.957031 L 123.242188 106.875 C 121.480469 107.074219 119.75 106.574219 118.363281 105.472656 C 116.976562 104.371094 116.105469 102.792969 115.90625 101.03125 L 114.40625 87.824219 C 114.207031 86.066406 114.707031 84.332031 115.808594 82.945312 C 116.914062 81.5625 118.488281 80.6875 120.25 80.488281 L 207.097656 70.636719 C 208.855469 70.4375 210.585938 70.9375 211.972656 72.039062 C 213.359375 73.144531 214.230469 74.71875 214.429688 76.480469 L 215.789062 88.453125 L 143.582031 88.453125 C 136.820312 88.453125 131.320312 93.953125 131.320312 100.714844 Z M 102.066406 86.921875 C 103.539062 89.917969 106.183594 92.1875 109.351562 93.203125 L 110.308594 101.667969 C 110.433594 102.75 110.703125 103.785156 111.089844 104.773438 L 97.304688 110.3125 C 95.660156 110.972656 93.859375 110.957031 92.230469 110.261719 C 90.601562 109.566406 89.339844 108.277344 88.679688 106.636719 L 86.191406 100.449219 C 85.53125 98.804688 85.550781 97.003906 86.246094 95.375 C 86.941406 93.746094 88.226562 92.484375 89.871094 91.824219 Z M 262.929688 71.320312 C 264.667969 71.65625 266.167969 72.648438 267.160156 74.117188 C 268.152344 75.585938 268.511719 77.351562 268.175781 79.089844 L 265.949219 90.597656 C 263.574219 92.59375 261.535156 94.90625 259.875 97.460938 C 259.214844 97.535156 258.550781 97.519531 257.882812 97.390625 L 246.613281 95.207031 C 244.59375 91.207031 240.453125 88.453125 235.675781 88.453125 L 221.453125 88.453125 L 220.023438 75.84375 C 219.65625 72.589844 218.039062 69.675781 215.476562 67.636719 C 212.917969 65.59375 209.710938 64.675781 206.460938 65.042969 L 167.507812 69.460938 L 169.347656 59.957031 C 169.683594 58.21875 170.675781 56.714844 172.144531 55.722656 C 173.613281 54.734375 175.378906 54.375 177.117188 54.710938 Z M 281.21875 190.269531 C 275.652344 188.800781 269.792969 188.90625 264.265625 190.566406 C 264.304688 189.570312 264.328125 188.570312 264.328125 187.5625 C 264.328125 172.816406 260.148438 159.03125 252.914062 147.328125 C 258.871094 141.402344 267.441406 138.714844 275.765625 140.289062 C 284.105469 141.867188 291.085938 147.492188 294.46875 155.1875 C 287.433594 159.667969 282.183594 166.921875 280.515625 175.742188 C 279.601562 180.59375 279.859375 185.582031 281.21875 190.269531 Z M 247.9375 115.425781 L 247.9375 101.199219 L 256.8125 102.917969 C 256.890625 102.933594 256.96875 102.9375 257.046875 102.953125 C 256.324219 104.789062 255.761719 106.707031 255.386719 108.6875 C 253.550781 118.40625 256.367188 128.15625 262.800781 135.328125 C 257.96875 136.644531 253.46875 139.117188 249.730469 142.582031 C 245.6875 137.007812 240.914062 131.996094 235.546875 127.6875 L 235.675781 127.6875 C 242.4375 127.6875 247.9375 122.1875 247.9375 115.425781 Z M 289.03125 139.960938 C 285.425781 137.414062 281.285156 135.601562 276.8125 134.757812 C 274.476562 134.3125 272.125 134.164062 269.800781 134.253906 C 262.570312 128.292969 259.171875 118.992188 260.921875 109.734375 C 261.484375 106.757812 262.546875 103.960938 264.042969 101.429688 C 264.054688 101.410156 264.066406 101.390625 264.078125 101.371094 C 265.960938 98.203125 268.527344 95.460938 271.664062 93.320312 C 277.320312 89.464844 284.136719 88.039062 290.863281 89.3125 C 297.589844 90.582031 303.417969 94.398438 307.277344 100.054688 C 311.132812 105.710938 312.558594 112.527344 311.285156 119.253906 C 309.199219 130.308594 300.117188 138.695312 289.03125 139.960938 Z M 258.398438 217.140625 L 263.78125 219.613281 C 264.164062 219.785156 264.5625 219.867188 264.957031 219.867188 C 266.023438 219.867188 267.042969 219.257812 267.515625 218.226562 C 268.164062 216.8125 267.546875 215.140625 266.132812 214.492188 L 260.386719 211.855469 C 262.011719 206.996094 263.164062 201.921875 263.785156 196.6875 C 270.285156 194.101562 277.550781 194.269531 283.949219 197.203125 C 296.792969 203.097656 302.445312 218.34375 296.554688 231.1875 C 293.699219 237.410156 288.589844 242.144531 282.171875 244.527344 C 275.753906 246.90625 268.792969 246.644531 262.570312 243.789062 C 257.179688 241.316406 252.859375 237.089844 250.265625 231.804688 C 253.484375 227.253906 256.21875 222.34375 258.398438 217.140625 Z M 288.382812 193.148438 C 285.832031 188.125 285 182.347656 286.050781 176.789062 C 288.675781 162.902344 302.105469 153.746094 315.992188 156.367188 C 322.722656 157.640625 328.550781 161.453125 332.40625 167.109375 C 336.265625 172.765625 337.6875 179.585938 336.414062 186.308594 C 333.789062 200.195312 320.355469 209.355469 306.472656 206.734375 C 304.285156 206.320312 302.183594 205.617188 300.195312 204.671875 C 297.4375 199.960938 293.433594 195.9375 288.382812 193.148438 Z M 317.039062 150.835938 C 310.910156 149.675781 304.859375 150.40625 299.476562 152.601562 C 298.152344 149.679688 296.410156 147.003906 294.3125 144.660156 C 305.671875 141.5625 314.570312 132.199219 316.820312 120.300781 C 317.496094 116.71875 317.546875 113.113281 316.996094 109.613281 C 326.839844 125.960938 333.628906 144.210938 336.738281 163.488281 C 332.035156 156.839844 325.0625 152.351562 317.039062 150.835938 Z M 225.757812 36.46875 C 227.398438 35.804688 229.203125 35.824219 230.832031 36.519531 C 232.460938 37.214844 233.722656 38.5 234.382812 40.144531 L 236.871094 46.332031 C 237.53125 47.976562 237.511719 49.777344 236.816406 51.40625 C 236.121094 53.035156 234.835938 54.296875 233.191406 54.957031 L 225.011719 58.246094 L 212.289062 55.78125 C 212.550781 53.972656 212.410156 52.113281 211.851562 50.335938 L 209.53125 42.992188 Z M 104.941406 55.765625 L 192.023438 28.261719 C 193.710938 27.730469 195.507812 27.886719 197.078125 28.703125 C 198.648438 29.519531 199.808594 30.898438 200.339844 32.589844 L 206.480469 52.03125 C 206.757812 52.90625 206.839844 53.816406 206.75 54.710938 L 178.1875 49.179688 C 174.972656 48.558594 171.707031 49.226562 168.992188 51.058594 C 166.28125 52.890625 164.441406 55.671875 163.820312 58.886719 L 161.644531 70.128906 L 119.613281 74.894531 C 116.359375 75.261719 113.445312 76.878906 111.40625 79.441406 C 109.765625 81.496094 108.867188 83.96875 108.757812 86.546875 C 107.84375 85.757812 107.132812 84.722656 106.757812 83.527344 L 100.617188 64.085938 C 99.511719 60.597656 101.453125 56.867188 104.941406 55.765625 Z M 95.792969 67.511719 L 100.238281 81.585938 L 87.773438 86.597656 C 84.734375 87.820312 82.351562 90.152344 81.066406 93.164062 C 79.78125 96.175781 79.746094 99.507812 80.96875 102.546875 L 83.457031 108.734375 C 84.679688 111.773438 87.007812 114.15625 90.023438 115.441406 C 91.570312 116.101562 93.199219 116.429688 94.832031 116.429688 C 96.378906 116.429688 97.925781 116.132812 99.40625 115.539062 L 114.425781 109.5 C 114.570312 109.625 114.707031 109.757812 114.855469 109.878906 C 117.046875 111.621094 119.707031 112.546875 122.46875 112.546875 C 122.933594 112.546875 123.40625 112.523438 123.875 112.46875 L 131.320312 111.625 L 131.320312 115.425781 C 131.320312 121.007812 135.074219 125.722656 140.183594 127.199219 C 133.34375 132.578125 127.4375 139.097656 122.75 146.464844 C 117.148438 146.707031 114.378906 143.898438 111.207031 140.679688 C 107.859375 137.285156 104.070312 133.441406 97.105469 134.054688 C 95.355469 134.210938 93.589844 135.027344 91.839844 136.351562 C 91.242188 134.664062 90.304688 133.339844 89.023438 132.398438 C 85.445312 129.765625 80.46875 130.851562 75.652344 131.898438 C 72.488281 132.589844 69.214844 133.300781 67.0625 132.765625 C 66.480469 132.609375 64.933594 131.226562 63.910156 130.3125 C 60.832031 127.566406 56.625 123.804688 51.214844 124.304688 C 50.886719 124.335938 50.558594 124.386719 50.230469 124.445312 C 60.519531 102.066406 76.113281 82.570312 95.792969 67.511719 Z M 44.8125 134.953125 C 47.253906 131.804688 49.578125 130.109375 51.726562 129.914062 C 51.871094 129.898438 52.015625 129.898438 52.160156 129.898438 C 42.933594 158.53125 44.011719 203.621094 44.390625 213.773438 C 44.0625 213.914062 43.742188 214.050781 43.425781 214.1875 C 41.476562 215.03125 39.261719 215.988281 38.425781 215.617188 C 38.246094 215.539062 37.59375 215.113281 36.898438 213.066406 C 33.296875 202.4375 34.46875 148.300781 44.8125 134.953125 Z M 40.222656 221.203125 C 42.035156 220.914062 43.867188 220.132812 45.664062 219.355469 C 48.84375 217.980469 52.136719 216.558594 55.578125 217.347656 C 56.46875 217.554688 57.34375 217.824219 58.226562 218.15625 C 58.183594 218.90625 58.167969 219.585938 58.195312 220.175781 C 58.351562 223.4375 59.449219 225.804688 61.453125 227.207031 C 63.515625 228.648438 66.109375 228.789062 68.992188 228.324219 C 70.117188 239.34375 74.183594 267.097656 86.683594 267.097656 C 86.707031 267.097656 86.726562 267.097656 86.746094 267.097656 C 93.46875 267.050781 96.152344 264.199219 98.308594 261.914062 C 100.46875 259.621094 102.027344 257.96875 108.894531 259.070312 C 111.390625 259.472656 113.84375 260.058594 116.214844 260.621094 C 122.875 262.210938 129.167969 263.710938 133.433594 259.933594 C 136.324219 257.375 137.640625 252.871094 137.515625 245.722656 C 143.429688 250.820312 150.128906 255.03125 157.398438 258.152344 C 151.574219 260.632812 146.808594 264.363281 143.648438 268.667969 C 136.179688 265.054688 128.339844 264.726562 121.800781 267.855469 C 107.886719 274.515625 103.667969 294.777344 112.398438 313.019531 C 113.855469 316.0625 115.585938 318.859375 117.515625 321.378906 C 79.261719 301.300781 50.226562 265.230469 40.222656 221.203125 Z M 187.5625 338.667969 C 175.507812 338.667969 163.722656 337.222656 152.390625 334.5 C 152.753906 334.347656 153.113281 334.191406 153.46875 334.019531 C 157.96875 331.867188 161.492188 328.230469 163.878906 323.65625 C 171.070312 329.585938 179.277344 332.6875 186.84375 332.6875 C 192.273438 332.6875 197.371094 331.089844 201.527344 327.792969 C 205.539062 324.613281 208.304688 320.09375 209.582031 314.761719 C 210.832031 315.761719 212.152344 316.710938 213.542969 317.582031 C 220.035156 321.644531 227.097656 323.621094 233.601562 323.621094 C 242.074219 323.621094 249.589844 320.265625 253.644531 313.789062 C 257.199219 308.109375 257.601562 300.992188 254.769531 293.75 C 254.214844 292.328125 253.542969 290.9375 252.769531 289.582031 C 261.039062 285.605469 266.386719 278.71875 266.964844 270.996094 C 267.929688 258.097656 255.589844 246.523438 239.089844 244.417969 C 241.742188 242.011719 244.222656 239.425781 246.515625 236.675781 C 249.734375 242.007812 254.480469 246.273438 260.222656 248.90625 C 264.378906 250.816406 268.804688 251.773438 273.246094 251.773438 C 276.914062 251.773438 280.589844 251.117188 284.132812 249.804688 C 291.960938 246.902344 298.191406 241.121094 301.671875 233.535156 C 304.929688 226.4375 305.285156 218.742188 303.253906 211.773438 C 303.972656 211.960938 304.695312 212.128906 305.425781 212.265625 C 307.378906 212.636719 309.324219 212.8125 311.246094 212.8125 C 322.511719 212.8125 332.855469 206.671875 338.359375 197.074219 C 333.433594 275.980469 267.6875 338.667969 187.5625 338.667969 Z M 187.5625 338.667969 " fill-opacity="1" fill-rule="nonzero"/></g></svg>